<svg width="38" height="44" viewBox="0 0 38 44" fill="none" xmlns="http://www.w3.org/2000/svg">
<path d="M19.0086 0C20.4919 -2.14825e-08 21.9607 0.283958 23.3311 0.83566C24.7015 1.38736 25.9467 2.19601 26.9955 3.21542C28.0444 4.23483 28.8764 5.44505 29.444 6.77698C30.0117 8.10891 30.3038 9.53646 30.3038 10.9781C30.3038 12.4198 30.0117 13.8473 29.444 15.1793C28.8764 16.5112 28.0444 17.7214 26.9955 18.7408C25.9467 19.7602 24.7015 20.5689 23.3311 21.1206C21.9607 21.6723 20.4919 21.9563 19.0086 21.9563C12.8262 21.8779 7.85344 16.9856 7.85344 10.9781C7.85344 4.97068 12.8276 0.0783759 19.0086 0ZM37.3492 23.884H37.2898L28.7505 19.7727C28.4631 19.6353 28.1327 19.6092 27.8262 19.6995C27.5197 19.7899 27.2599 19.9901 27.0995 20.2595C24.9044 23.8303 22.1639 27.0562 18.9718 29.8268C15.8016 27.0608 13.0766 23.8477 10.888 20.2952C10.73 20.0234 10.4708 19.8207 10.1637 19.7289C9.8566 19.6371 9.525 19.6631 9.23705 19.8016L0.682159 23.884H0.62274C0.33869 24.0464 0.131186 24.3103 0.0444951 24.6193C-0.042196 24.9284 -0.00121073 25.2581 0.158707 25.5382C2.52212 29.5089 5.40796 33.1633 8.74331 36.409L8.73624 36.4159C8.78009 36.4585 8.83244 36.5025 8.87629 36.5452C9.51009 37.1612 10.151 37.7621 10.8145 38.3423C10.9687 38.4784 11.1243 38.6077 11.2785 38.7438C11.8755 39.2526 12.4725 39.7613 13.0908 40.2481C13.3638 40.4626 13.651 40.6633 13.9241 40.871C14.4475 41.2642 14.9625 41.6657 15.5015 42.0452C16.3348 42.6255 17.1822 43.1906 18.0438 43.7214C18.6181 44.0789 19.3552 44.094 19.9452 43.7571C20.8592 43.1834 21.7561 42.5841 22.6346 41.96C22.7676 41.8665 22.885 41.7661 23.018 41.6809C23.6886 41.1941 24.3591 40.6922 25.0142 40.1766C25.457 39.826 25.8842 39.4602 26.3115 39.0958C26.6354 38.8304 26.9523 38.5664 27.2692 38.2859C27.8224 37.7923 28.36 37.2904 28.8976 36.7748C29.0079 36.6607 29.1339 36.5603 29.2513 36.4448H29.2442C32.5889 33.1887 35.482 29.5222 37.85 25.5382C38.0069 25.2538 38.0423 24.9208 37.9486 24.6113C37.8549 24.3017 37.6396 24.0405 37.3492 23.884Z" fill="#151965"/>
</svg>
