<svg width="48" height="32" viewBox="0 0 48 32" fill="none" xmlns="http://www.w3.org/2000/svg">
<path d="M44.5714 0H3.42857C2.51926 0 1.64719 0.337142 1.00421 0.937258C0.361223 1.53737 0 2.35131 0 3.2V28.8C0 29.6487 0.361223 30.4626 1.00421 31.0627C1.64719 31.6629 2.51926 32 3.42857 32H44.5714C45.4807 32 46.3528 31.6629 46.9958 31.0627C47.6388 30.4626 48 29.6487 48 28.8V3.2C48 2.35131 47.6388 1.53737 46.9958 0.937258C46.3528 0.337142 45.4807 0 44.5714 0ZM40.8 3.2L24 14.048L7.2 3.2H40.8ZM3.42857 28.8V4.656L23.0229 17.312C23.3098 17.4978 23.6507 17.5974 24 17.5974C24.3493 17.5974 24.6902 17.4978 24.9771 17.312L44.5714 4.656V28.8H3.42857Z" fill="#151965"/>
</svg>
