<svg width="30" height="30" viewBox="0 0 30 30" fill="none" xmlns="http://www.w3.org/2000/svg">
<path fill-rule="evenodd" clip-rule="evenodd" d="M15 0C6.71496 0 0 6.71496 0 15C0 21.6262 4.29667 27.2493 10.2582 29.2345C11.0086 29.3699 11.2793 28.9082 11.2793 28.5111C11.2793 28.1547 11.2673 27.2102 11.2628 25.9605C7.08943 26.8659 6.20814 23.9483 6.20814 23.9483C5.52837 22.2158 4.54331 21.7541 4.54331 21.7541C3.18227 20.8231 4.64708 20.8442 4.64708 20.8442C6.154 20.9495 6.94355 22.3902 6.94355 22.3902C8.28203 24.6822 10.4567 24.0205 11.3079 23.637C11.4448 22.6669 11.8358 22.0052 12.2629 21.6307C8.93323 21.2533 5.43212 19.9659 5.43212 14.2165C5.43212 12.5817 6.01714 11.2402 6.97213 10.1935C6.82023 9.81301 6.30138 8.28655 7.12101 6.22318C7.12101 6.22318 8.37979 5.81863 11.2447 7.75867C12.4683 7.42581 13.7305 7.25591 14.9985 7.25336C16.2666 7.25542 17.5288 7.42533 18.7523 7.75867C21.6187 5.81712 22.876 6.22318 22.876 6.22318C23.6956 8.28655 23.1813 9.81301 23.0249 10.1935C23.9874 11.2402 24.5649 12.5802 24.5649 14.2165C24.5649 19.981 21.0608 21.2472 17.7191 21.6187C18.253 22.0819 18.7342 22.9963 18.7342 24.3949C18.7342 26.4011 18.7162 28.0194 18.7162 28.5111C18.7162 28.9127 18.9839 29.3789 19.7493 29.2315C25.7078 27.2433 30 21.6247 30 15C30 6.71496 23.285 0 15 0Z" fill="black"/>
</svg>
