<svg width="40" height="40" viewBox="0 0 40 40" fill="none" xmlns="http://www.w3.org/2000/svg">
<path d="M19.6 0C8.77625 0 0 8.77625 0 19.6C0 30.4237 8.77625 39.2 19.6 39.2C30.4237 39.2 39.2 30.4237 39.2 19.6C39.2 8.77625 30.4237 0 19.6 0ZM13.0156 22.5838C13.0156 23.8 12.0313 24.7887 10.815 24.7887C10.2331 24.7887 9.67313 24.5569 9.2575 24.1412C8.84625 23.7256 8.61437 23.1656 8.61437 22.5838C8.61437 21.3675 9.59875 20.3787 10.815 20.3787H13.0156V22.5838ZM18.8781 28.4637C18.8781 29.68 17.8938 30.6687 16.6775 30.6687C15.4613 30.6687 14.4769 29.68 14.4769 28.4637V22.5838C14.4769 21.3675 15.4613 20.3787 16.6775 20.3787C17.2594 20.3787 17.8194 20.6106 18.235 21.0262C18.6506 21.4419 18.8781 22.0019 18.8781 22.5838V28.4637ZM16.6819 18.9088H10.8194C9.60312 18.9088 8.61875 17.92 8.61875 16.7037C8.61875 15.4875 9.60312 14.4987 10.8194 14.4987H16.6819C17.8981 14.4987 18.8825 15.4875 18.8825 16.7037C18.8781 17.9244 17.8937 18.9088 16.6819 18.9088ZM16.6819 13.0287C16.1 13.0287 15.54 12.7969 15.1244 12.3812C14.7088 11.9656 14.4812 11.41 14.4812 10.8237C14.4812 9.6075 15.4656 8.61875 16.6819 8.61875C17.8981 8.61875 18.8825 9.6075 18.8825 10.8237V13.0287H16.6819V13.0287ZM20.3437 10.8237C20.3437 9.6075 21.3281 8.61875 22.5444 8.61875C23.7606 8.61875 24.745 9.6075 24.745 10.8237V16.7037C24.745 17.92 23.7606 18.9088 22.5444 18.9088C21.3281 18.9088 20.3437 17.92 20.3437 16.7037V10.8237V10.8237ZM22.5444 30.6687C21.3281 30.6687 20.3437 29.68 20.3437 28.4637V26.2588H22.5444C23.7606 26.2588 24.745 27.2475 24.745 28.4637C24.745 29.68 23.7606 30.6687 22.5444 30.6687ZM28.4069 24.7887H22.5444C21.9625 24.7887 21.4025 24.5569 20.9869 24.1412C20.5713 23.7256 20.3437 23.17 20.3437 22.5838C20.3437 21.3675 21.3281 20.3787 22.5444 20.3787H28.4069C29.6231 20.3787 30.6075 21.3675 30.6075 22.5838C30.6075 23.8 29.6231 24.7887 28.4069 24.7887ZM28.4069 18.9088H26.2062V16.7037C26.2062 15.4875 27.1906 14.4987 28.4069 14.4987C29.6231 14.4987 30.6075 15.4875 30.6075 16.7037C30.6075 17.92 29.6231 18.9088 28.4069 18.9088Z" fill="#151965"/>
</svg>
