<svg width="1726" height="1979" viewBox="0 0 1726 1979" fill="none" xmlns="http://www.w3.org/2000/svg">
<path d="M863.5 1949.6L837.6 1964.5L842.3 1967.2L863.5 1955V1979L1725.2 1481.5V1427.7L863.5 1925.2V1949.6ZM863.5 1786.1L696.1 1882.8L704.2 1887.5L863.5 1795.6V1815.8L1725.2 1318.2V1268.3L863.5 1765.8V1786.1ZM863.5 1622.7L554.5 1801.1L566.2 1807.8L863.5 1636.2V1652.3L1725.2 1154.8V1108.9L863.5 1606.4V1622.7ZM1725.2 485.9L1712.5 478.6L1022.5 877L932.9 825.3L1142.6 704.2V673.9L1596.7 411.7L1574.5 398.9L1142.6 648.2V622.2L861.9 784.3L765.1 728.4L1455.1 330L1436.4 319.2L746.4 717.6L652.2 663.2L805.2 574.9L776.6 558.4L1313.7 248.3L1298.5 239.5L761.4 549.6L734.2 533.9L580.8 622.2V653.9L437 736.9L426.5 730.9L0.900024 976.5V1018.3L462.7 751.7L452.1 745.6L580.7 671.4V704L675.3 758.6L575.1 816.4L568.1 812.4L0.900024 1140V1177.8L601 831.3L593.9 827.2L694 769.4L790.8 825.3L580.8 946.6V968.6L0.900024 1303.4V1337.1L580.8 1002.3V1028.1L670.8 1080L1.00003 1466.7V1481.3L14.1 1488.9L696.6 1094.9L789.7 1148.6L580.9 1268V1295.4L130 1555.8L152.2 1568.6L580.9 1321.1V1352.7L862 1190.4L946.9 1239.4L863.6 1287.5V1295.6L271.5 1637.4L290.2 1648.2L863.6 1317.2V1325.3L979.7 1258.3L1071.8 1311.5L921.5 1398.3L934.7 1405.9L863.6 1446.9V1459.1L413 1719.3L428.2 1728.1L863.5 1476.8V1488.9L970.8 1426.9L992.4 1439.4L1142.7 1352.8V1327.7L1725.3 991.4V949.6L1142.7 1285.9V1270.6L1050.6 1217.4L1725.2 827.9V790.1L1017.8 1198.5L932.9 1149.5L1142.6 1028.4V1000.8L1725.2 664.5V630.8L1142.6 967.1V946.4L1048.2 891.9L1725.2 501V485.9V485.9ZM652.2 987.4L861.9 866.3L951.4 918L851.5 975.7L741.7 1039.1L652.2 987.4V987.4ZM1071.6 987.4L861 1107.9L767.6 1054L864 998.3L977.3 932.9L1071.6 987.4V987.4ZM310.4 664.1L1172.1 166.6L1160.4 159.8L298.7 657.3L284.7 649.3L0.900024 813.1V859L324.5 672.2L310.4 664.1ZM168.7 582.5L1030.6 84.9L1022.4 80.1L160.5 577.8L142.9 567.7L0.900024 649.7V699.6L186.3 592.6L168.7 582.5ZM26.9 500.9L889 3.09999L884.3 0.399994L22.2 498.2L1.20003 486.1L0.900024 486.2V540.2L48 513L26.9 500.9Z" fill="black"/>
</svg>
