<svg width="40" height="35" viewBox="0 0 40 35" fill="none" xmlns="http://www.w3.org/2000/svg">
<path d="M40 7.5V30C40 31.3802 39.5117 32.5586 38.5352 33.5352C37.5586 34.5117 36.3802 35 35 35H5C3.61979 35 2.44141 34.5117 1.46484 33.5352C0.488281 32.5586 0 31.3802 0 30V10C0 9.32292 0.247396 8.73698 0.742188 8.24219C1.23698 7.7474 1.82292 7.5 2.5 7.5H21.25L23.0469 4.21875C23.2292 3.72396 23.5938 3.3138 24.1406 2.98828C24.6875 2.66276 25.2604 2.5 25.8594 2.5H35.2344C35.8594 2.5 36.4453 2.66276 36.9922 2.98828C37.5391 3.3138 37.9167 3.72396 38.125 4.21875L40 7.5ZM27.3047 15.8203C27.487 15.5078 27.5326 15.1758 27.4414 14.8242C27.3503 14.4727 27.1354 14.2057 26.7969 14.0234L24.375 12.6953C24.0365 12.513 23.6849 12.4674 23.3203 12.5586C22.9557 12.6497 22.6693 12.8516 22.4609 13.1641L21.2891 15.1172C20.8464 15.0391 20.4167 15 20 15C19.5833 15 19.1536 15.0391 18.7109 15.1172L17.5391 13.1641C17.3307 12.8516 17.0443 12.6497 16.6797 12.5586C16.3151 12.4674 15.9635 12.513 15.625 12.6953L13.2031 14.0234C12.8646 14.2057 12.6497 14.4727 12.5586 14.8242C12.4674 15.1758 12.513 15.5078 12.6953 15.8203L14.0234 18.0078C13.5807 18.6068 13.2292 19.2708 12.9688 20H11.25C10.9115 20 10.6185 20.1172 10.3711 20.3516C10.1237 20.5859 10 20.8854 10 21.25V23.75C10 24.1146 10.1237 24.4206 10.3711 24.668C10.6185 24.9154 10.9115 25.0391 11.25 25.0391H12.9688C13.2292 25.7422 13.5807 26.3932 14.0234 26.9922L12.6953 29.1797C12.513 29.5182 12.4674 29.8633 12.5586 30.2148C12.6497 30.5664 12.8646 30.8333 13.2031 31.0156L15.625 32.3047C15.9635 32.487 16.3151 32.5326 16.6797 32.4414C17.0443 32.3503 17.3307 32.1484 17.5391 31.8359L18.7109 29.8828C19.1536 29.9609 19.5833 30 20 30C20.4167 30 20.8464 29.9609 21.2891 29.8828L22.4609 31.8359C22.6693 32.1484 22.9557 32.3503 23.3203 32.4414C23.6849 32.5326 24.0365 32.487 24.375 32.3047L26.7969 31.0156C27.1354 30.8333 27.3503 30.5664 27.4414 30.2148C27.5326 29.8633 27.487 29.5182 27.3047 29.1797L25.9766 26.9922C26.4193 26.3932 26.7708 25.7422 27.0312 25.0391H28.75C29.0885 25.0391 29.3815 24.9154 29.6289 24.668C29.8763 24.4206 30 24.1146 30 23.75V21.25C30 20.8854 29.8763 20.5859 29.6289 20.3516C29.3815 20.1172 29.0885 20 28.75 20H27.0312C26.7708 19.2708 26.4193 18.6068 25.9766 18.0078L27.3047 15.8203ZM20 27.5C18.6198 27.5 17.4414 27.0117 16.4648 26.0352C15.4883 25.0586 15 23.8802 15 22.5C15 21.1198 15.4883 19.9414 16.4648 18.9648C17.4414 17.9883 18.6198 17.5 20 17.5C21.3802 17.5 22.5586 17.9883 23.5352 18.9648C24.5117 19.9414 25 21.1198 25 22.5C25 23.8802 24.5117 25.0586 23.5352 26.0352C22.5586 27.0117 21.3802 27.5 20 27.5ZM1.79688 1.71875C1.97917 1.22396 2.34375 0.813802 2.89062 0.488281C3.4375 0.16276 4.01042 0 4.60938 0H13.9844C14.6094 0 15.1953 0.16276 15.7422 0.488281C16.2891 0.813802 16.6667 1.22396 16.875 1.71875L18.75 5H0L1.79688 1.71875Z" fill="black"/>
</svg>
