<svg width="40" height="40" viewBox="0 0 40 40" fill="none" xmlns="http://www.w3.org/2000/svg">
<path d="M18.3663 15.1002C18.3663 15.9665 18.0222 16.7974 17.4096 17.41C16.7969 18.0227 15.966 18.3668 15.0997 18.3668C14.2333 18.3668 13.4024 18.0227 12.7898 17.41C12.1772 16.7974 11.833 15.9665 11.833 15.1002C11.833 14.2338 12.1772 13.4029 12.7898 12.7903C13.4024 12.1777 14.2333 11.8335 15.0997 11.8335C15.966 11.8335 16.7969 12.1777 17.4096 12.7903C18.0222 13.4029 18.3663 14.2338 18.3663 15.1002Z" fill="#151965"/>
<path d="M28.1666 15.1002C28.1666 15.9665 27.8225 16.7974 27.2098 17.41C26.5972 18.0227 25.7663 18.3668 24.9 18.3668C24.0336 18.3668 23.2027 18.0227 22.5901 17.41C21.9775 16.7974 21.6333 15.9665 21.6333 15.1002C21.6333 14.2338 21.9775 13.4029 22.5901 12.7903C23.2027 12.1777 24.0336 11.8335 24.9 11.8335C25.7663 11.8335 26.5972 12.1777 27.2098 12.7903C27.8225 13.4029 28.1666 14.2338 28.1666 15.1002Z" fill="#151965"/>
<path d="M24.9 28.1666C25.7663 28.1666 26.5972 27.8225 27.2098 27.2098C27.8225 26.5972 28.1666 25.7663 28.1666 24.9C28.1666 24.0336 27.8225 23.2027 27.2098 22.5901C26.5972 21.9775 25.7663 21.6333 24.9 21.6333C24.0336 21.6333 23.2027 21.9775 22.5901 22.5901C21.9775 23.2027 21.6333 24.0336 21.6333 24.9C21.6333 25.7663 21.9775 26.5972 22.5901 27.2098C23.2027 27.8225 24.0336 28.1666 24.9 28.1666Z" fill="#151965"/>
<path d="M18.3663 24.9C18.3663 25.7663 18.0222 26.5972 17.4096 27.2098C16.7969 27.8225 15.966 28.1666 15.0997 28.1666C14.2333 28.1666 13.4024 27.8225 12.7898 27.2098C12.1772 26.5972 11.833 25.7663 11.833 24.9C11.833 24.0336 12.1772 23.2027 12.7898 22.5901C13.4024 21.9775 14.2333 21.6333 15.0997 21.6333C15.966 21.6333 16.7969 21.9775 17.4096 22.5901C18.0222 23.2027 18.3663 24.0336 18.3663 24.9Z" fill="#151965"/>
<path fill-rule="evenodd" clip-rule="evenodd" d="M39.5999 20.0004C39.5999 30.8245 30.824 39.6004 19.9999 39.6004C9.1758 39.6004 0.399902 30.8245 0.399902 20.0004C0.399902 9.17629 9.1758 0.400391 19.9999 0.400391C30.824 0.400391 39.5999 9.17629 39.5999 20.0004ZM34.6999 20.0004C34.6999 21.9308 34.3197 23.8423 33.5809 25.6258C32.8422 27.4093 31.7594 29.0298 30.3944 30.3949C29.0293 31.7599 27.4088 32.8427 25.6253 33.5814C23.8419 34.3202 21.9303 34.7004 19.9999 34.7004C18.0695 34.7004 16.1579 34.3202 14.3745 33.5814C12.591 32.8427 10.9705 31.7599 9.60543 30.3949C8.24041 29.0298 7.15762 27.4093 6.41887 25.6258C5.68013 23.8423 5.2999 21.9308 5.2999 20.0004C5.2999 16.1017 6.84865 12.3627 9.60543 9.60592C12.3622 6.84914 16.1012 5.30039 19.9999 5.30039C23.8986 5.30039 27.6376 6.84914 30.3944 9.60592C33.1511 12.3627 34.6999 16.1017 34.6999 20.0004Z" fill="#151965"/>
</svg>
