<svg width="20" height="21" viewBox="0 0 20 21" fill="none" xmlns="http://www.w3.org/2000/svg">
<path d="M10 0.0180664C8.02219 0.0180664 6.08879 0.60432 4.4443 1.70269C2.79981 2.80106 1.51809 4.36222 0.761209 6.18874C0.00433284 8.01527 -0.1937 10.0251 0.192152 11.9642C0.578004 13.9032 1.53041 15.6843 2.92894 17.0823C4.32746 18.4802 6.10929 19.4322 8.0491 19.8179C9.98891 20.2036 11.9996 20.0057 13.8268 19.2491C15.6541 18.4925 17.2159 17.2113 18.3147 15.5675C19.4135 13.9237 20 11.9911 20 10.014C20 8.70135 19.7413 7.40151 19.2388 6.18874C18.7362 4.97598 17.9997 3.87403 17.0711 2.94582C16.1425 2.01761 15.0401 1.28131 13.8268 0.778964C12.6136 0.27662 11.3132 0.0180664 10 0.0180664ZM13.18 15.164C13.1427 15.2573 13.0858 15.3417 13.0132 15.4113C12.9406 15.4808 12.8539 15.5341 12.759 15.5674C12.6641 15.6008 12.5631 15.6134 12.4629 15.6045C12.3627 15.5956 12.2655 15.5654 12.178 15.5158L9.463 13.4067L7.721 15.014C7.68057 15.0439 7.63328 15.0631 7.58348 15.0699C7.53368 15.0767 7.48297 15.0709 7.436 15.053L7.77 12.0652L7.78 12.0742L7.787 12.0152C7.787 12.0152 12.672 7.56902 12.871 7.3801C13.073 7.19117 13.006 7.15019 13.006 7.15019C13.018 6.92028 12.645 7.15019 12.645 7.15019L6.172 11.3125L3.477 10.3949C3.477 10.3949 3.063 10.2469 3.024 9.92007C2.983 9.5962 3.49 9.42027 3.49 9.42027L14.207 5.16399C14.207 5.16399 15.088 4.77215 15.088 5.42189L13.18 15.164Z" fill="white"/>
</svg>
