<svg width="820" height="100" viewBox="0 0 820 100" fill="none" xmlns="http://www.w3.org/2000/svg">
<rect width="820" height="100" fill="#2A5ADA"/>
<path d="M275.295 56.791C274.963 61.3809 273.264 64.9941 270.197 67.6309C267.15 70.2676 263.127 71.5859 258.127 71.5859C252.658 71.5859 248.352 69.75 245.207 66.0781C242.082 62.3867 240.52 57.3281 240.52 50.9023V48.2949C240.52 44.1934 241.242 40.5801 242.688 37.4551C244.133 34.3301 246.193 31.9375 248.869 30.2773C251.564 28.5977 254.689 27.7578 258.244 27.7578C263.166 27.7578 267.131 29.0762 270.139 31.7129C273.146 34.3496 274.885 38.0508 275.354 42.8164H266.564C266.35 40.0625 265.578 38.0703 264.25 36.8398C262.941 35.5898 260.939 34.9648 258.244 34.9648C255.314 34.9648 253.117 36.0195 251.652 38.1289C250.207 40.2188 249.465 43.4707 249.426 47.8848V51.1074C249.426 55.7168 250.119 59.0859 251.506 61.2148C252.912 63.3438 255.119 64.4082 258.127 64.4082C260.842 64.4082 262.863 63.793 264.191 62.5625C265.539 61.3125 266.311 59.3887 266.506 56.791H275.295ZM288.771 42.7578C291.018 40.0625 293.84 38.7148 297.238 38.7148C304.113 38.7148 307.6 42.709 307.697 50.6973V71H299.23V50.9316C299.23 49.1152 298.84 47.7773 298.059 46.918C297.277 46.0391 295.979 45.5996 294.162 45.5996C291.682 45.5996 289.885 46.5566 288.771 48.4707V71H280.305V26H288.771V42.7578ZM332.453 71C332.062 70.2383 331.779 69.291 331.604 68.1582C329.553 70.4434 326.887 71.5859 323.605 71.5859C320.5 71.5859 317.922 70.6875 315.871 68.8906C313.84 67.0938 312.824 64.8281 312.824 62.0938C312.824 58.7344 314.064 56.1562 316.545 54.3594C319.045 52.5625 322.648 51.6543 327.355 51.6348H331.252V49.8184C331.252 48.3535 330.871 47.1816 330.109 46.3027C329.367 45.4238 328.186 44.9844 326.564 44.9844C325.139 44.9844 324.016 45.3262 323.195 46.0098C322.395 46.6934 321.994 47.6309 321.994 48.8223H313.527C313.527 46.9863 314.094 45.2871 315.227 43.7246C316.359 42.1621 317.961 40.9414 320.031 40.0625C322.102 39.1641 324.426 38.7148 327.004 38.7148C330.91 38.7148 334.006 39.7012 336.291 41.6738C338.596 43.627 339.748 46.3809 339.748 49.9355V63.6758C339.768 66.6836 340.188 68.959 341.008 70.502V71H332.453ZM325.451 65.1113C326.701 65.1113 327.854 64.8379 328.908 64.291C329.963 63.7246 330.744 62.9727 331.252 62.0352V56.5859H328.088C323.85 56.5859 321.594 58.0508 321.32 60.9805L321.291 61.4785C321.291 62.5332 321.662 63.4023 322.404 64.0859C323.146 64.7695 324.162 65.1113 325.451 65.1113ZM355.188 71H346.691V39.3008H355.188V71ZM346.193 31.0977C346.193 29.8281 346.613 28.7832 347.453 27.9629C348.312 27.1426 349.475 26.7324 350.939 26.7324C352.385 26.7324 353.537 27.1426 354.396 27.9629C355.256 28.7832 355.686 29.8281 355.686 31.0977C355.686 32.3867 355.246 33.4414 354.367 34.2617C353.508 35.082 352.365 35.4922 350.939 35.4922C349.514 35.4922 348.361 35.082 347.482 34.2617C346.623 33.4414 346.193 32.3867 346.193 31.0977ZM369.982 39.3008L370.246 42.9629C372.512 40.1309 375.549 38.7148 379.357 38.7148C382.717 38.7148 385.217 39.7012 386.857 41.6738C388.498 43.6465 389.338 46.5957 389.377 50.5215V71H380.91V50.7266C380.91 48.9297 380.52 47.6309 379.738 46.8301C378.957 46.0098 377.658 45.5996 375.842 45.5996C373.459 45.5996 371.672 46.6152 370.48 48.6465V71H362.014V39.3008H369.982ZM404.758 71H396.262V26H404.758V71ZM420.695 71H412.199V39.3008H420.695V71ZM411.701 31.0977C411.701 29.8281 412.121 28.7832 412.961 27.9629C413.82 27.1426 414.982 26.7324 416.447 26.7324C417.893 26.7324 419.045 27.1426 419.904 27.9629C420.764 28.7832 421.193 29.8281 421.193 31.0977C421.193 32.3867 420.754 33.4414 419.875 34.2617C419.016 35.082 417.873 35.4922 416.447 35.4922C415.021 35.4922 413.869 35.082 412.99 34.2617C412.131 33.4414 411.701 32.3867 411.701 31.0977ZM435.49 39.3008L435.754 42.9629C438.02 40.1309 441.057 38.7148 444.865 38.7148C448.225 38.7148 450.725 39.7012 452.365 41.6738C454.006 43.6465 454.846 46.5957 454.885 50.5215V71H446.418V50.7266C446.418 48.9297 446.027 47.6309 445.246 46.8301C444.465 46.0098 443.166 45.5996 441.35 45.5996C438.967 45.5996 437.18 46.6152 435.988 48.6465V71H427.521V39.3008H435.49ZM472.844 58.2852L469.797 61.332V71H461.33V26H469.797V50.9316L471.438 48.8223L479.553 39.3008H489.719L478.264 52.5137L490.715 71H480.988L472.844 58.2852ZM530.998 59.8086C530.998 58.1484 530.412 56.8789 529.24 56C528.068 55.1016 525.959 54.1641 522.912 53.1875C519.865 52.1914 517.453 51.2148 515.676 50.2578C510.832 47.6406 508.41 44.1152 508.41 39.6816C508.41 37.377 509.055 35.3262 510.344 33.5293C511.652 31.7129 513.518 30.2969 515.939 29.2812C518.381 28.2656 521.115 27.7578 524.143 27.7578C527.189 27.7578 529.904 28.3145 532.287 29.4277C534.67 30.5215 536.516 32.0742 537.824 34.0859C539.152 36.0977 539.816 38.3828 539.816 40.9414H531.027C531.027 38.9883 530.412 37.4746 529.182 36.4004C527.951 35.3066 526.223 34.7598 523.996 34.7598C521.848 34.7598 520.178 35.2188 518.986 36.1367C517.795 37.0352 517.199 38.2266 517.199 39.7109C517.199 41.0977 517.893 42.2598 519.279 43.1973C520.686 44.1348 522.746 45.0137 525.461 45.834C530.461 47.3379 534.104 49.2031 536.389 51.4297C538.674 53.6562 539.816 56.4297 539.816 59.75C539.816 63.4414 538.42 66.3418 535.627 68.4512C532.834 70.541 529.074 71.5859 524.348 71.5859C521.066 71.5859 518.078 70.9902 515.383 69.7988C512.688 68.5879 510.627 66.9375 509.201 64.8477C507.795 62.7578 507.092 60.3359 507.092 57.582H515.91C515.91 62.2891 518.723 64.6426 524.348 64.6426C526.438 64.6426 528.068 64.2227 529.24 63.3828C530.412 62.5234 530.998 61.332 530.998 59.8086ZM559.826 71.5859C555.178 71.5859 551.389 70.1602 548.459 67.3086C545.549 64.457 544.094 60.6582 544.094 55.9121V55.0918C544.094 51.9082 544.709 49.0664 545.939 46.5664C547.17 44.0469 548.908 42.1133 551.154 40.7656C553.42 39.3984 555.998 38.7148 558.889 38.7148C563.225 38.7148 566.633 40.082 569.113 42.8164C571.613 45.5508 572.863 49.4277 572.863 54.4473V57.9043H552.678C552.951 59.9746 553.771 61.6348 555.139 62.8848C556.525 64.1348 558.273 64.7598 560.383 64.7598C563.645 64.7598 566.193 63.5781 568.029 61.2148L572.189 65.873C570.92 67.6699 569.201 69.0762 567.033 70.0918C564.865 71.0879 562.463 71.5859 559.826 71.5859ZM558.859 45.5703C557.18 45.5703 555.812 46.1367 554.758 47.2695C553.723 48.4023 553.059 50.0234 552.766 52.1328H564.543V51.459C564.504 49.584 563.996 48.1387 563.02 47.123C562.043 46.0879 560.656 45.5703 558.859 45.5703ZM587.834 31.5078V39.3008H593.254V45.5117H587.834V61.332C587.834 62.5039 588.059 63.3438 588.508 63.8516C588.957 64.3594 589.816 64.6133 591.086 64.6133C592.023 64.6133 592.854 64.5449 593.576 64.4082V70.8242C591.916 71.332 590.207 71.5859 588.449 71.5859C582.512 71.5859 579.484 68.5879 579.367 62.5918V45.5117H574.738V39.3008H579.367V31.5078H587.834ZM616.955 67.7773C614.865 70.3164 611.975 71.5859 608.283 71.5859C604.885 71.5859 602.287 70.6094 600.49 68.6562C598.713 66.7031 597.805 63.8418 597.766 60.0723V39.3008H606.232V59.7793C606.232 63.0801 607.736 64.7305 610.744 64.7305C613.615 64.7305 615.588 63.7344 616.662 61.7422V39.3008H625.158V71H617.189L616.955 67.7773ZM660.08 55.4434C660.08 60.3262 658.967 64.2422 656.74 67.1914C654.533 70.1211 651.545 71.5859 647.775 71.5859C644.572 71.5859 641.984 70.4727 640.012 68.2461V83.1875H631.545V39.3008H639.396L639.689 42.4062C641.74 39.9453 644.416 38.7148 647.717 38.7148C651.623 38.7148 654.66 40.1602 656.828 43.0508C658.996 45.9414 660.08 49.9258 660.08 55.0039V55.4434ZM651.613 54.8281C651.613 51.8789 651.086 49.6035 650.031 48.002C648.996 46.4004 647.482 45.5996 645.49 45.5996C642.834 45.5996 641.008 46.6152 640.012 48.6465V61.625C641.047 63.7148 642.893 64.7598 645.549 64.7598C649.592 64.7598 651.613 61.4492 651.613 54.8281Z" fill="white"/>
<path d="M175.5 11L168.41 15.0619L149.09 26.1881L142 30.25V68.75L149.09 72.8119L168.587 83.9381L175.677 88L182.767 83.9381L201.91 72.8119L209 68.75V30.25L201.91 26.1881L182.59 15.0619L175.5 11ZM156.18 60.6261V38.3739L175.5 27.2477L194.82 38.3739V60.6261L175.5 71.7523L156.18 60.6261Z" fill="white"/>
</svg>
