<svg width="820" height="100" viewBox="0 0 820 100" fill="none" xmlns="http://www.w3.org/2000/svg">
<rect width="820" height="100" fill="#1B1E36"/>
<path d="M274.295 56.791C273.963 61.3809 272.264 64.9941 269.197 67.6309C266.15 70.2676 262.127 71.5859 257.127 71.5859C251.658 71.5859 247.352 69.75 244.207 66.0781C241.082 62.3867 239.52 57.3281 239.52 50.9023V48.2949C239.52 44.1934 240.242 40.5801 241.688 37.4551C243.133 34.3301 245.193 31.9375 247.869 30.2773C250.564 28.5977 253.689 27.7578 257.244 27.7578C262.166 27.7578 266.131 29.0762 269.139 31.7129C272.146 34.3496 273.885 38.0508 274.354 42.8164H265.564C265.35 40.0625 264.578 38.0703 263.25 36.8398C261.941 35.5898 259.939 34.9648 257.244 34.9648C254.314 34.9648 252.117 36.0195 250.652 38.1289C249.207 40.2188 248.465 43.4707 248.426 47.8848V51.1074C248.426 55.7168 249.119 59.0859 250.506 61.2148C251.912 63.3438 254.119 64.4082 257.127 64.4082C259.842 64.4082 261.863 63.793 263.191 62.5625C264.539 61.3125 265.311 59.3887 265.506 56.791H274.295ZM278.191 54.8574C278.191 51.7129 278.797 48.9102 280.008 46.4492C281.219 43.9883 282.957 42.084 285.223 40.7363C287.508 39.3887 290.154 38.7148 293.162 38.7148C297.439 38.7148 300.926 40.0234 303.621 42.6406C306.336 45.2578 307.85 48.8125 308.162 53.3047L308.221 55.4727C308.221 60.3359 306.863 64.2422 304.148 67.1914C301.434 70.1211 297.791 71.5859 293.221 71.5859C288.65 71.5859 284.998 70.1211 282.264 67.1914C279.549 64.2617 278.191 60.2773 278.191 55.2383V54.8574ZM286.658 55.4727C286.658 58.4805 287.225 60.7852 288.357 62.3867C289.49 63.9688 291.111 64.7598 293.221 64.7598C295.271 64.7598 296.873 63.9785 298.025 62.416C299.178 60.834 299.754 58.3145 299.754 54.8574C299.754 51.9082 299.178 49.623 298.025 48.002C296.873 46.3809 295.252 45.5703 293.162 45.5703C291.092 45.5703 289.49 46.3809 288.357 48.002C287.225 49.6035 286.658 52.0938 286.658 55.4727ZM330.604 62.2402C330.604 61.2051 330.086 60.3945 329.051 59.8086C328.035 59.2031 326.395 58.666 324.129 58.1973C316.59 56.6152 312.82 53.4121 312.82 48.5879C312.82 45.7754 313.982 43.4316 316.307 41.5566C318.65 39.6621 321.707 38.7148 325.477 38.7148C329.5 38.7148 332.713 39.6621 335.115 41.5566C337.537 43.4512 338.748 45.9121 338.748 48.9395H330.281C330.281 47.7285 329.891 46.7324 329.109 45.9512C328.328 45.1504 327.107 44.75 325.447 44.75C324.021 44.75 322.918 45.0723 322.137 45.7168C321.355 46.3613 320.965 47.1816 320.965 48.1777C320.965 49.1152 321.404 49.877 322.283 50.4629C323.182 51.0293 324.686 51.5273 326.795 51.957C328.904 52.3672 330.682 52.8359 332.127 53.3633C336.6 55.0039 338.836 57.8457 338.836 61.8887C338.836 64.7793 337.596 67.123 335.115 68.9199C332.635 70.6973 329.432 71.5859 325.506 71.5859C322.85 71.5859 320.486 71.1172 318.416 70.1797C316.365 69.2227 314.754 67.9238 313.582 66.2832C312.41 64.623 311.824 62.8359 311.824 60.9219H319.852C319.93 62.4258 320.486 63.5781 321.521 64.3789C322.557 65.1797 323.943 65.5801 325.682 65.5801C327.303 65.5801 328.523 65.2773 329.344 64.6719C330.184 64.0469 330.604 63.2363 330.604 62.2402ZM352.254 39.3008L352.518 42.8457C354.764 40.0918 357.801 38.7148 361.629 38.7148C365.711 38.7148 368.514 40.3262 370.037 43.5488C372.264 40.3262 375.438 38.7148 379.559 38.7148C382.996 38.7148 385.555 39.7207 387.234 41.7324C388.914 43.7246 389.754 46.7324 389.754 50.7559V71H381.258V50.7852C381.258 48.9883 380.906 47.6797 380.203 46.8594C379.5 46.0195 378.26 45.5996 376.482 45.5996C373.943 45.5996 372.186 46.8105 371.209 49.2324L371.238 71H362.771V50.8145C362.771 48.9785 362.41 47.6504 361.688 46.8301C360.965 46.0098 359.734 45.5996 357.996 45.5996C355.594 45.5996 353.855 46.5957 352.781 48.5879V71H344.314V39.3008H352.254ZM394.969 54.8574C394.969 51.7129 395.574 48.9102 396.785 46.4492C397.996 43.9883 399.734 42.084 402 40.7363C404.285 39.3887 406.932 38.7148 409.939 38.7148C414.217 38.7148 417.703 40.0234 420.398 42.6406C423.113 45.2578 424.627 48.8125 424.939 53.3047L424.998 55.4727C424.998 60.3359 423.641 64.2422 420.926 67.1914C418.211 70.1211 414.568 71.5859 409.998 71.5859C405.428 71.5859 401.775 70.1211 399.041 67.1914C396.326 64.2617 394.969 60.2773 394.969 55.2383V54.8574ZM403.436 55.4727C403.436 58.4805 404.002 60.7852 405.135 62.3867C406.268 63.9688 407.889 64.7598 409.998 64.7598C412.049 64.7598 413.65 63.9785 414.803 62.416C415.955 60.834 416.531 58.3145 416.531 54.8574C416.531 51.9082 415.955 49.623 414.803 48.002C413.65 46.3809 412.029 45.5703 409.939 45.5703C407.869 45.5703 406.268 46.3809 405.135 48.002C404.002 49.6035 403.436 52.0938 403.436 55.4727ZM447.381 62.2402C447.381 61.2051 446.863 60.3945 445.828 59.8086C444.812 59.2031 443.172 58.666 440.906 58.1973C433.367 56.6152 429.598 53.4121 429.598 48.5879C429.598 45.7754 430.76 43.4316 433.084 41.5566C435.428 39.6621 438.484 38.7148 442.254 38.7148C446.277 38.7148 449.49 39.6621 451.893 41.5566C454.314 43.4512 455.525 45.9121 455.525 48.9395H447.059C447.059 47.7285 446.668 46.7324 445.887 45.9512C445.105 45.1504 443.885 44.75 442.225 44.75C440.799 44.75 439.695 45.0723 438.914 45.7168C438.133 46.3613 437.742 47.1816 437.742 48.1777C437.742 49.1152 438.182 49.877 439.061 50.4629C439.959 51.0293 441.463 51.5273 443.572 51.957C445.682 52.3672 447.459 52.8359 448.904 53.3633C453.377 55.0039 455.613 57.8457 455.613 61.8887C455.613 64.7793 454.373 67.123 451.893 68.9199C449.412 70.6973 446.209 71.5859 442.283 71.5859C439.627 71.5859 437.264 71.1172 435.193 70.1797C433.143 69.2227 431.531 67.9238 430.359 66.2832C429.188 64.623 428.602 62.8359 428.602 60.9219H436.629C436.707 62.4258 437.264 63.5781 438.299 64.3789C439.334 65.1797 440.721 65.5801 442.459 65.5801C444.08 65.5801 445.301 65.2773 446.121 64.6719C446.961 64.0469 447.381 63.2363 447.381 62.2402ZM498.709 59.8086C498.709 58.1484 498.123 56.8789 496.951 56C495.779 55.1016 493.67 54.1641 490.623 53.1875C487.576 52.1914 485.164 51.2148 483.387 50.2578C478.543 47.6406 476.121 44.1152 476.121 39.6816C476.121 37.377 476.766 35.3262 478.055 33.5293C479.363 31.7129 481.229 30.2969 483.65 29.2812C486.092 28.2656 488.826 27.7578 491.854 27.7578C494.9 27.7578 497.615 28.3145 499.998 29.4277C502.381 30.5215 504.227 32.0742 505.535 34.0859C506.863 36.0977 507.527 38.3828 507.527 40.9414H498.738C498.738 38.9883 498.123 37.4746 496.893 36.4004C495.662 35.3066 493.934 34.7598 491.707 34.7598C489.559 34.7598 487.889 35.2188 486.697 36.1367C485.506 37.0352 484.91 38.2266 484.91 39.7109C484.91 41.0977 485.604 42.2598 486.99 43.1973C488.396 44.1348 490.457 45.0137 493.172 45.834C498.172 47.3379 501.814 49.2031 504.1 51.4297C506.385 53.6562 507.527 56.4297 507.527 59.75C507.527 63.4414 506.131 66.3418 503.338 68.4512C500.545 70.541 496.785 71.5859 492.059 71.5859C488.777 71.5859 485.789 70.9902 483.094 69.7988C480.398 68.5879 478.338 66.9375 476.912 64.8477C475.506 62.7578 474.803 60.3359 474.803 57.582H483.621C483.621 62.2891 486.434 64.6426 492.059 64.6426C494.148 64.6426 495.779 64.2227 496.951 63.3828C498.123 62.5234 498.709 61.332 498.709 59.8086ZM527.537 71.5859C522.889 71.5859 519.1 70.1602 516.17 67.3086C513.26 64.457 511.805 60.6582 511.805 55.9121V55.0918C511.805 51.9082 512.42 49.0664 513.65 46.5664C514.881 44.0469 516.619 42.1133 518.865 40.7656C521.131 39.3984 523.709 38.7148 526.6 38.7148C530.936 38.7148 534.344 40.082 536.824 42.8164C539.324 45.5508 540.574 49.4277 540.574 54.4473V57.9043H520.389C520.662 59.9746 521.482 61.6348 522.85 62.8848C524.236 64.1348 525.984 64.7598 528.094 64.7598C531.355 64.7598 533.904 63.5781 535.74 61.2148L539.9 65.873C538.631 67.6699 536.912 69.0762 534.744 70.0918C532.576 71.0879 530.174 71.5859 527.537 71.5859ZM526.57 45.5703C524.891 45.5703 523.523 46.1367 522.469 47.2695C521.434 48.4023 520.77 50.0234 520.477 52.1328H532.254V51.459C532.215 49.584 531.707 48.1387 530.73 47.123C529.754 46.0879 528.367 45.5703 526.57 45.5703ZM555.545 31.5078V39.3008H560.965V45.5117H555.545V61.332C555.545 62.5039 555.77 63.3438 556.219 63.8516C556.668 64.3594 557.527 64.6133 558.797 64.6133C559.734 64.6133 560.564 64.5449 561.287 64.4082V70.8242C559.627 71.332 557.918 71.5859 556.16 71.5859C550.223 71.5859 547.195 68.5879 547.078 62.5918V45.5117H542.449V39.3008H547.078V31.5078H555.545ZM584.666 67.7773C582.576 70.3164 579.686 71.5859 575.994 71.5859C572.596 71.5859 569.998 70.6094 568.201 68.6562C566.424 66.7031 565.516 63.8418 565.477 60.0723V39.3008H573.943V59.7793C573.943 63.0801 575.447 64.7305 578.455 64.7305C581.326 64.7305 583.299 63.7344 584.373 61.7422V39.3008H592.869V71H584.9L584.666 67.7773ZM627.791 55.4434C627.791 60.3262 626.678 64.2422 624.451 67.1914C622.244 70.1211 619.256 71.5859 615.486 71.5859C612.283 71.5859 609.695 70.4727 607.723 68.2461V83.1875H599.256V39.3008H607.107L607.4 42.4062C609.451 39.9453 612.127 38.7148 615.428 38.7148C619.334 38.7148 622.371 40.1602 624.539 43.0508C626.707 45.9414 627.791 49.9258 627.791 55.0039V55.4434ZM619.324 54.8281C619.324 51.8789 618.797 49.6035 617.742 48.002C616.707 46.4004 615.193 45.5996 613.201 45.5996C610.545 45.5996 608.719 46.6152 607.723 48.6465V61.625C608.758 63.7148 610.604 64.7598 613.26 64.7598C617.303 64.7598 619.324 61.4492 619.324 54.8281Z" fill="white"/>
<path d="M172 89C150.46 89 133 71.5402 133 50C133 28.4598 150.46 11 172 11C193.54 11 211 28.4598 211 50C211 71.5402 193.54 89 172 89ZM168.088 68.4811C169.114 72.9003 170.511 75.6157 172.049 75.6157C174.474 75.6157 176.548 68.8492 177.377 59.3015C186.055 63.3721 192.953 64.9663 194.172 62.8627C195.388 60.764 190.571 55.5746 182.727 50.0707C190.601 44.5985 195.434 39.431 194.228 37.3226C193.448 35.9649 190.293 36.1379 185.818 37.5127C185.668 37.2474 185.451 37.0263 185.188 36.8718C184.925 36.7173 184.626 36.6348 184.322 36.6327C184.072 36.6362 183.825 36.6925 183.599 36.7977C183.372 36.903 183.17 37.055 183.006 37.2437C182.843 37.4323 182.72 37.6535 182.648 37.8927C182.576 38.1318 182.554 38.3836 182.586 38.6315C180.953 39.2506 179.208 39.9916 177.382 40.8374C176.553 31.2678 174.479 24.4818 172.049 24.4818C169.621 24.4818 167.549 31.2483 166.72 40.7936C158.043 36.7254 151.142 35.1312 149.926 37.2348C149.165 38.5511 150.764 41.0763 153.994 44.1281C153.958 44.274 153.94 44.4238 153.941 44.5741C153.941 45.5711 154.721 46.3779 155.683 46.3779C155.922 46.3786 156.158 46.3288 156.376 46.2316C157.988 47.5639 159.654 48.83 161.37 50.0268C153.497 55.499 148.663 60.6665 149.872 62.7749C151.081 64.8809 158.001 63.3039 166.715 59.2601C166.901 61.4026 167.149 63.4062 167.447 65.2271C167.212 65.397 167.021 65.6206 166.89 65.8793C166.759 66.1379 166.692 66.424 166.694 66.7139C166.694 67.5841 167.293 68.3129 168.088 68.4811V68.4811ZM169.219 68.3276C169.512 68.1725 169.758 67.9398 169.928 67.6548C170.098 67.3698 170.187 67.0435 170.184 66.7115C170.191 66.2585 170.025 65.82 169.72 65.4853C169.414 65.1506 168.993 64.9449 168.541 64.9102C168.239 62.9602 168.024 60.8371 167.876 58.7116C169.276 58.037 170.662 57.3316 172.032 56.5959C173.475 57.3759 174.891 58.1047 176.268 58.7726C176.043 61.1483 175.736 63.5157 175.349 65.8706C174.138 72.7297 172.444 74.1727 172.444 74.1727C172.083 74.6553 171.72 74.2946 171.72 74.2946C170.267 72.6078 169.541 69.4805 169.541 69.4805C169.423 69.0991 169.316 68.7147 169.219 68.3276ZM157.234 45.4029C157.362 45.1456 157.429 44.8618 157.429 44.5741C157.429 43.5748 156.649 42.7704 155.683 42.7704C155.308 42.7701 154.943 42.8944 154.645 43.1238C151.267 39.8819 150.977 38.2951 150.977 38.2951V38.2903C150.74 37.7345 151.235 37.6004 151.235 37.6004C153.421 37.1861 156.493 38.1294 156.493 38.1294C159.381 38.7875 163.049 40.3329 166.618 42.0733C166.504 43.6345 166.424 45.1982 166.379 46.763C164.987 47.6161 163.652 48.4741 162.389 49.3297C160.633 48.0722 158.913 46.7635 157.234 45.4053V45.4029ZM183.115 39.7381C183.273 39.8976 183.462 40.0243 183.669 40.1109C183.877 40.1975 184.099 40.2423 184.324 40.2427C185.192 40.2427 185.911 39.5846 186.045 38.7266C190.505 37.3274 192.314 37.4908 192.948 37.6638C193.051 37.6921 193.141 37.7562 193.201 37.8446C193.261 37.9331 193.288 38.04 193.277 38.1464C193.155 39.4554 190.839 41.8198 190.839 41.8198C188.03 44.5935 184.997 47.1314 181.772 49.4077C180.441 48.4994 179.089 47.6216 177.718 46.7752C177.675 45.2014 177.596 43.6289 177.482 42.0586C179.335 41.2275 181.212 40.4536 183.113 39.7381H183.115ZM181.716 50.7654C191.42 57.8049 192.989 60.9809 193.235 61.9243C193.262 62.0272 193.252 62.1362 193.206 62.2321C193.16 62.328 193.081 62.4046 192.984 62.4483C191.79 62.9968 188.585 62.1802 188.585 62.1802C184.777 61.1367 181.061 59.7826 177.475 58.1315C177.589 56.5934 177.67 54.9871 177.718 53.3369C179.115 52.4838 180.448 51.6209 181.716 50.7654ZM166.352 52.028C165.373 51.3961 164.405 50.746 163.449 50.078C164.424 49.4369 165.399 48.8154 166.35 48.2255C166.33 49.4929 166.331 50.7606 166.352 52.028V52.028ZM166.382 53.3199C166.43 54.9457 166.508 56.5228 166.62 58.0389C164.435 59.0312 162.215 59.9474 159.966 60.7859C153.416 63.1454 151.32 62.3947 151.32 62.3947C150.721 62.3216 150.857 61.8243 150.857 61.8243C151.593 59.7281 153.943 57.5392 153.943 57.5392C155.959 55.3698 159.135 52.9689 162.425 50.7556C163.678 51.6087 165.002 52.4692 166.382 53.3223V53.3199ZM177.75 48.1524C179 48.8958 179.744 49.3614 179.744 49.3614C180.1 49.6124 180.448 49.8562 180.785 50.0975C179.622 50.897 178.591 51.5649 177.748 52.0865C177.771 50.7744 177.772 49.462 177.75 48.1499V48.1524ZM176.378 57.6196C175.108 57.0176 174.013 56.4569 173.146 55.9938C174.316 55.3493 175.474 54.6846 176.621 53.9999C176.563 55.2479 176.475 56.4667 176.378 57.6196V57.6196ZM167.639 54.0853C168.719 54.7335 169.808 55.364 170.908 55.9767C169.85 56.5203 168.802 57.0298 167.798 57.4978C167.73 56.361 167.677 55.2234 167.639 54.0853V54.0853ZM167.6 52.8178C167.555 51.0436 167.536 49.2689 167.544 47.4943C169.02 46.5981 170.508 45.7237 172.01 44.8715C173.794 45.8465 175.403 46.7679 176.685 47.5186C176.695 48.3328 176.685 48.7861 176.685 48.7861C176.72 50.1038 176.715 51.4223 176.67 52.7398C175.898 53.2029 175.452 53.4418 175.452 53.4418C174.333 54.1252 173.194 54.7747 172.037 55.3893C171.249 54.9506 170.818 54.6824 170.818 54.6824C169.727 54.0917 168.654 53.469 167.6 52.8153V52.8178ZM173.272 44.1622C174.54 43.4553 175.317 43.0458 175.317 43.0458C175.698 42.8679 176.073 42.6948 176.439 42.5291C176.553 43.9209 176.617 45.1396 176.651 46.1219C175.536 45.4497 174.409 44.7964 173.272 44.1622V44.1622ZM167.705 42.6119C168.753 43.1384 169.787 43.6747 170.776 44.2036C169.694 44.8031 168.621 45.4199 167.559 46.0537C167.576 44.6058 167.608 43.7308 167.608 43.7308L167.705 42.6095V42.6119ZM167.832 41.3225C169.058 29.3982 171.02 26.4464 171.712 25.7591C171.788 25.6841 171.888 25.6383 171.994 25.6298C172.1 25.6213 172.206 25.6507 172.293 25.7127C173.365 26.4757 174.267 29.6542 174.267 29.6542C175.405 33.8857 176.012 38.0075 176.334 41.3347C174.896 42.0248 173.474 42.7465 172.068 43.4992C170.673 42.7417 169.26 42.016 167.832 41.3225V41.3225ZM171.99 52.9957C172.788 52.9957 173.553 52.6788 174.117 52.1147C174.681 51.5506 174.998 50.7856 174.998 49.9878C174.998 49.1901 174.681 48.425 174.117 47.8609C173.553 47.2968 172.788 46.9799 171.99 46.9799C171.193 46.9799 170.427 47.2968 169.863 47.8609C169.299 48.425 168.982 49.1901 168.982 49.9878C168.982 50.7856 169.299 51.5506 169.863 52.1147C170.427 52.6788 171.193 52.9957 171.99 52.9957Z" fill="white"/>
</svg>
