<svg width="820" height="100" viewBox="0 0 820 100" fill="none" xmlns="http://www.w3.org/2000/svg">
<rect width="820" height="100" fill="#282828"/>
<path d="M263.928 59.8086C263.928 58.1484 263.342 56.8789 262.17 56C260.998 55.1016 258.889 54.1641 255.842 53.1875C252.795 52.1914 250.383 51.2148 248.605 50.2578C243.762 47.6406 241.34 44.1152 241.34 39.6816C241.34 37.377 241.984 35.3262 243.273 33.5293C244.582 31.7129 246.447 30.2969 248.869 29.2812C251.311 28.2656 254.045 27.7578 257.072 27.7578C260.119 27.7578 262.834 28.3145 265.217 29.4277C267.6 30.5215 269.445 32.0742 270.754 34.0859C272.082 36.0977 272.746 38.3828 272.746 40.9414H263.957C263.957 38.9883 263.342 37.4746 262.111 36.4004C260.881 35.3066 259.152 34.7598 256.926 34.7598C254.777 34.7598 253.107 35.2188 251.916 36.1367C250.725 37.0352 250.129 38.2266 250.129 39.7109C250.129 41.0977 250.822 42.2598 252.209 43.1973C253.615 44.1348 255.676 45.0137 258.391 45.834C263.391 47.3379 267.033 49.2031 269.318 51.4297C271.604 53.6562 272.746 56.4297 272.746 59.75C272.746 63.4414 271.35 66.3418 268.557 68.4512C265.764 70.541 262.004 71.5859 257.277 71.5859C253.996 71.5859 251.008 70.9902 248.312 69.7988C245.617 68.5879 243.557 66.9375 242.131 64.8477C240.725 62.7578 240.021 60.3359 240.021 57.582H248.84C248.84 62.2891 251.652 64.6426 257.277 64.6426C259.367 64.6426 260.998 64.2227 262.17 63.3828C263.342 62.5234 263.928 61.332 263.928 59.8086ZM297.15 67.7773C295.061 70.3164 292.17 71.5859 288.479 71.5859C285.08 71.5859 282.482 70.6094 280.686 68.6562C278.908 66.7031 278 63.8418 277.961 60.0723V39.3008H286.428V59.7793C286.428 63.0801 287.932 64.7305 290.939 64.7305C293.811 64.7305 295.783 63.7344 296.857 61.7422V39.3008H305.354V71H297.385L297.15 67.7773ZM340.305 55.4434C340.305 60.5215 339.221 64.4863 337.053 67.3379C334.885 70.1699 331.857 71.5859 327.971 71.5859C324.533 71.5859 321.789 70.2676 319.738 67.6309L319.357 71H311.74V26H320.207V42.1426C322.16 39.8574 324.729 38.7148 327.912 38.7148C331.779 38.7148 334.807 40.1406 336.994 42.9922C339.201 45.8242 340.305 49.8184 340.305 54.9746V55.4434ZM331.838 54.8281C331.838 51.625 331.33 49.291 330.314 47.8262C329.299 46.3418 327.785 45.5996 325.773 45.5996C323.078 45.5996 321.223 46.7031 320.207 48.9102V61.4199C321.242 63.6465 323.117 64.7598 325.832 64.7598C328.566 64.7598 330.363 63.4121 331.223 60.7168C331.633 59.4277 331.838 57.4648 331.838 54.8281ZM362.717 62.2402C362.717 61.2051 362.199 60.3945 361.164 59.8086C360.148 59.2031 358.508 58.666 356.242 58.1973C348.703 56.6152 344.934 53.4121 344.934 48.5879C344.934 45.7754 346.096 43.4316 348.42 41.5566C350.764 39.6621 353.82 38.7148 357.59 38.7148C361.613 38.7148 364.826 39.6621 367.229 41.5566C369.65 43.4512 370.861 45.9121 370.861 48.9395H362.395C362.395 47.7285 362.004 46.7324 361.223 45.9512C360.441 45.1504 359.221 44.75 357.561 44.75C356.135 44.75 355.031 45.0723 354.25 45.7168C353.469 46.3613 353.078 47.1816 353.078 48.1777C353.078 49.1152 353.518 49.877 354.396 50.4629C355.295 51.0293 356.799 51.5273 358.908 51.957C361.018 52.3672 362.795 52.8359 364.24 53.3633C368.713 55.0039 370.949 57.8457 370.949 61.8887C370.949 64.7793 369.709 67.123 367.229 68.9199C364.748 70.6973 361.545 71.5859 357.619 71.5859C354.963 71.5859 352.6 71.1172 350.529 70.1797C348.479 69.2227 346.867 67.9238 345.695 66.2832C344.523 64.623 343.938 62.8359 343.938 60.9219H351.965C352.043 62.4258 352.6 63.5781 353.635 64.3789C354.67 65.1797 356.057 65.5801 357.795 65.5801C359.416 65.5801 360.637 65.2773 361.457 64.6719C362.297 64.0469 362.717 63.2363 362.717 62.2402ZM386.564 31.5078V39.3008H391.984V45.5117H386.564V61.332C386.564 62.5039 386.789 63.3438 387.238 63.8516C387.688 64.3594 388.547 64.6133 389.816 64.6133C390.754 64.6133 391.584 64.5449 392.307 64.4082V70.8242C390.646 71.332 388.938 71.5859 387.18 71.5859C381.242 71.5859 378.215 68.5879 378.098 62.5918V45.5117H373.469V39.3008H378.098V31.5078H386.564ZM414.514 47.2402C413.361 47.084 412.346 47.0059 411.467 47.0059C408.264 47.0059 406.164 48.0898 405.168 50.2578V71H396.701V39.3008H404.699L404.934 43.0801C406.633 40.1699 408.986 38.7148 411.994 38.7148C412.932 38.7148 413.811 38.8418 414.631 39.0957L414.514 47.2402ZM436.105 71C435.715 70.2383 435.432 69.291 435.256 68.1582C433.205 70.4434 430.539 71.5859 427.258 71.5859C424.152 71.5859 421.574 70.6875 419.523 68.8906C417.492 67.0938 416.477 64.8281 416.477 62.0938C416.477 58.7344 417.717 56.1562 420.197 54.3594C422.697 52.5625 426.301 51.6543 431.008 51.6348H434.904V49.8184C434.904 48.3535 434.523 47.1816 433.762 46.3027C433.02 45.4238 431.838 44.9844 430.217 44.9844C428.791 44.9844 427.668 45.3262 426.848 46.0098C426.047 46.6934 425.646 47.6309 425.646 48.8223H417.18C417.18 46.9863 417.746 45.2871 418.879 43.7246C420.012 42.1621 421.613 40.9414 423.684 40.0625C425.754 39.1641 428.078 38.7148 430.656 38.7148C434.562 38.7148 437.658 39.7012 439.943 41.6738C442.248 43.627 443.4 46.3809 443.4 49.9355V63.6758C443.42 66.6836 443.84 68.959 444.66 70.502V71H436.105ZM429.104 65.1113C430.354 65.1113 431.506 64.8379 432.561 64.291C433.615 63.7246 434.396 62.9727 434.904 62.0352V56.5859H431.74C427.502 56.5859 425.246 58.0508 424.973 60.9805L424.943 61.4785C424.943 62.5332 425.314 63.4023 426.057 64.0859C426.799 64.7695 427.814 65.1113 429.104 65.1113ZM460.041 31.5078V39.3008H465.461V45.5117H460.041V61.332C460.041 62.5039 460.266 63.3438 460.715 63.8516C461.164 64.3594 462.023 64.6133 463.293 64.6133C464.23 64.6133 465.061 64.5449 465.783 64.4082V70.8242C464.123 71.332 462.414 71.5859 460.656 71.5859C454.719 71.5859 451.691 68.5879 451.574 62.5918V45.5117H446.945V39.3008H451.574V31.5078H460.041ZM484.768 71.5859C480.119 71.5859 476.33 70.1602 473.4 67.3086C470.49 64.457 469.035 60.6582 469.035 55.9121V55.0918C469.035 51.9082 469.65 49.0664 470.881 46.5664C472.111 44.0469 473.85 42.1133 476.096 40.7656C478.361 39.3984 480.939 38.7148 483.83 38.7148C488.166 38.7148 491.574 40.082 494.055 42.8164C496.555 45.5508 497.805 49.4277 497.805 54.4473V57.9043H477.619C477.893 59.9746 478.713 61.6348 480.08 62.8848C481.467 64.1348 483.215 64.7598 485.324 64.7598C488.586 64.7598 491.135 63.5781 492.971 61.2148L497.131 65.873C495.861 67.6699 494.143 69.0762 491.975 70.0918C489.807 71.0879 487.404 71.5859 484.768 71.5859ZM483.801 45.5703C482.121 45.5703 480.754 46.1367 479.699 47.2695C478.664 48.4023 478 50.0234 477.707 52.1328H489.484V51.459C489.445 49.584 488.938 48.1387 487.961 47.123C486.984 46.0879 485.598 45.5703 483.801 45.5703ZM540.256 59.8086C540.256 58.1484 539.67 56.8789 538.498 56C537.326 55.1016 535.217 54.1641 532.17 53.1875C529.123 52.1914 526.711 51.2148 524.934 50.2578C520.09 47.6406 517.668 44.1152 517.668 39.6816C517.668 37.377 518.312 35.3262 519.602 33.5293C520.91 31.7129 522.775 30.2969 525.197 29.2812C527.639 28.2656 530.373 27.7578 533.4 27.7578C536.447 27.7578 539.162 28.3145 541.545 29.4277C543.928 30.5215 545.773 32.0742 547.082 34.0859C548.41 36.0977 549.074 38.3828 549.074 40.9414H540.285C540.285 38.9883 539.67 37.4746 538.439 36.4004C537.209 35.3066 535.48 34.7598 533.254 34.7598C531.105 34.7598 529.436 35.2188 528.244 36.1367C527.053 37.0352 526.457 38.2266 526.457 39.7109C526.457 41.0977 527.15 42.2598 528.537 43.1973C529.943 44.1348 532.004 45.0137 534.719 45.834C539.719 47.3379 543.361 49.2031 545.646 51.4297C547.932 53.6562 549.074 56.4297 549.074 59.75C549.074 63.4414 547.678 66.3418 544.885 68.4512C542.092 70.541 538.332 71.5859 533.605 71.5859C530.324 71.5859 527.336 70.9902 524.641 69.7988C521.945 68.5879 519.885 66.9375 518.459 64.8477C517.053 62.7578 516.35 60.3359 516.35 57.582H525.168C525.168 62.2891 527.98 64.6426 533.605 64.6426C535.695 64.6426 537.326 64.2227 538.498 63.3828C539.67 62.5234 540.256 61.332 540.256 59.8086ZM569.084 71.5859C564.436 71.5859 560.646 70.1602 557.717 67.3086C554.807 64.457 553.352 60.6582 553.352 55.9121V55.0918C553.352 51.9082 553.967 49.0664 555.197 46.5664C556.428 44.0469 558.166 42.1133 560.412 40.7656C562.678 39.3984 565.256 38.7148 568.146 38.7148C572.482 38.7148 575.891 40.082 578.371 42.8164C580.871 45.5508 582.121 49.4277 582.121 54.4473V57.9043H561.936C562.209 59.9746 563.029 61.6348 564.396 62.8848C565.783 64.1348 567.531 64.7598 569.641 64.7598C572.902 64.7598 575.451 63.5781 577.287 61.2148L581.447 65.873C580.178 67.6699 578.459 69.0762 576.291 70.0918C574.123 71.0879 571.721 71.5859 569.084 71.5859ZM568.117 45.5703C566.438 45.5703 565.07 46.1367 564.016 47.2695C562.98 48.4023 562.316 50.0234 562.023 52.1328H573.801V51.459C573.762 49.584 573.254 48.1387 572.277 47.123C571.301 46.0879 569.914 45.5703 568.117 45.5703ZM597.092 31.5078V39.3008H602.512V45.5117H597.092V61.332C597.092 62.5039 597.316 63.3438 597.766 63.8516C598.215 64.3594 599.074 64.6133 600.344 64.6133C601.281 64.6133 602.111 64.5449 602.834 64.4082V70.8242C601.174 71.332 599.465 71.5859 597.707 71.5859C591.77 71.5859 588.742 68.5879 588.625 62.5918V45.5117H583.996V39.3008H588.625V31.5078H597.092ZM626.213 67.7773C624.123 70.3164 621.232 71.5859 617.541 71.5859C614.143 71.5859 611.545 70.6094 609.748 68.6562C607.971 66.7031 607.062 63.8418 607.023 60.0723V39.3008H615.49V59.7793C615.49 63.0801 616.994 64.7305 620.002 64.7305C622.873 64.7305 624.846 63.7344 625.92 61.7422V39.3008H634.416V71H626.447L626.213 67.7773ZM669.338 55.4434C669.338 60.3262 668.225 64.2422 665.998 67.1914C663.791 70.1211 660.803 71.5859 657.033 71.5859C653.83 71.5859 651.242 70.4727 649.27 68.2461V83.1875H640.803V39.3008H648.654L648.947 42.4062C650.998 39.9453 653.674 38.7148 656.975 38.7148C660.881 38.7148 663.918 40.1602 666.086 43.0508C668.254 45.9414 669.338 49.9258 669.338 55.0039V55.4434ZM660.871 54.8281C660.871 51.8789 660.344 49.6035 659.289 48.002C658.254 46.4004 656.74 45.5996 654.748 45.5996C652.092 45.5996 650.266 46.6152 649.27 48.6465V61.625C650.305 63.7148 652.15 64.7598 654.807 64.7598C658.85 64.7598 660.871 61.4492 660.871 54.8281Z" fill="white"/>
<path d="M175.016 87.841L173.994 88.4284L174.18 88.5348L175.016 88.0539V89L208.996 69.3876V67.2668L175.016 86.8791V87.841ZM175.016 81.3955L168.415 85.2076L168.734 85.3929L175.016 81.77V82.5664L208.996 62.9501V60.9829L175.016 80.5953V81.3955ZM175.016 74.954L162.831 81.9869L163.292 82.251L175.016 75.4862V76.1209L208.996 56.5085V54.6991L175.016 74.3114V74.954ZM208.996 30.1393L208.495 29.8515L181.286 45.5572L177.752 43.5191L186.022 38.7451V37.5506L203.929 27.2142L203.053 26.7096L186.022 36.5375V35.5125L174.953 41.9028L171.135 39.6991L198.345 23.9934L197.608 23.5677L170.398 39.2733L166.683 37.1288L172.717 33.6478L171.589 32.9974L192.769 20.7727L192.17 20.4258L170.99 32.6505L169.917 32.0315L163.868 35.5125V36.7622L158.197 40.0342L157.783 39.7976L141 49.4796V51.1275L159.211 40.6176L158.793 40.3771L163.864 37.452V38.7372L167.594 40.8896L163.643 43.1682L163.367 43.0105L141 55.9251V57.4152L164.664 43.7556L164.384 43.594L168.332 41.3154L172.149 43.5191L163.868 48.3009V49.1682L141 62.3666V63.6951L163.868 50.4967V51.5138L167.417 53.5598L141.004 68.8042V69.3798L141.521 69.6794L168.434 54.1472L172.106 56.2641L163.872 60.9711V62.0513L146.091 72.3167L146.966 72.8213L163.872 63.0644V64.3101L174.957 57.912L178.305 59.8436L175.02 61.7398V62.0591L151.671 75.5335L152.408 75.9593L175.02 62.9106V63.23L179.598 60.5887L183.23 62.6859L177.303 66.1078L177.823 66.4074L175.02 68.0237V68.5046L157.251 78.7622L157.85 79.1091L175.016 69.2024V69.6794L179.247 67.2352L180.099 67.728L186.026 64.3141V63.3246L209 50.067V48.4192L186.026 61.6767V61.0736L182.394 58.9763L208.996 43.6216V42.1314L181.1 58.2313L177.752 56.2996L186.022 51.5256V50.4376L208.996 37.18V35.8515L186.022 49.1091V48.293L182.299 46.1445L208.996 30.7346V30.1393V30.1393ZM166.683 49.9093L174.953 45.1353L178.482 47.1735L174.543 49.4481L170.213 51.9474L166.683 49.9093V49.9093ZM183.222 49.9093L174.917 54.6597L171.234 52.5348L175.035 50.339L179.503 47.7608L183.222 49.9093V49.9093ZM153.205 37.1643L187.185 17.5519L186.724 17.2838L152.743 36.8962L152.191 36.5808L141 43.0381V44.8476L153.761 37.4836L153.205 37.1643ZM147.617 33.9474L181.605 14.3311L181.282 14.1419L147.294 33.7622L146.6 33.364L141 36.5966V38.5637L148.311 34.3456L147.617 33.9474ZM142.025 30.7306L176.021 11.1064L175.836 11L141.84 30.6242L141.012 30.1472L141 30.1511V32.2799L142.857 31.2076L142.025 30.7306Z" fill="white"/>
</svg>
