<svg width="70" height="70" viewBox="0 0 70 70" fill="none" xmlns="http://www.w3.org/2000/svg">
<circle cx="35" cy="35" r="35" fill="white"/>
<path d="M33.3663 30.1002C33.3663 30.9665 33.0222 31.7974 32.4096 32.41C31.7969 33.0227 30.966 33.3668 30.0997 33.3668C29.2333 33.3668 28.4024 33.0227 27.7898 32.41C27.1772 31.7974 26.833 30.9665 26.833 30.1002C26.833 29.2338 27.1772 28.4029 27.7898 27.7903C28.4024 27.1777 29.2333 26.8335 30.0997 26.8335C30.966 26.8335 31.7969 27.1777 32.4096 27.7903C33.0222 28.4029 33.3663 29.2338 33.3663 30.1002Z" fill="#151965"/>
<path d="M43.1666 30.1002C43.1666 30.9665 42.8225 31.7974 42.2098 32.41C41.5972 33.0227 40.7663 33.3668 39.9 33.3668C39.0336 33.3668 38.2027 33.0227 37.5901 32.41C36.9775 31.7974 36.6333 30.9665 36.6333 30.1002C36.6333 29.2338 36.9775 28.4029 37.5901 27.7903C38.2027 27.1777 39.0336 26.8335 39.9 26.8335C40.7663 26.8335 41.5972 27.1777 42.2098 27.7903C42.8225 28.4029 43.1666 29.2338 43.1666 30.1002Z" fill="#151965"/>
<path d="M39.9 43.1666C40.7663 43.1666 41.5972 42.8225 42.2098 42.2098C42.8225 41.5972 43.1666 40.7663 43.1666 39.9C43.1666 39.0336 42.8225 38.2027 42.2098 37.5901C41.5972 36.9775 40.7663 36.6333 39.9 36.6333C39.0336 36.6333 38.2027 36.9775 37.5901 37.5901C36.9775 38.2027 36.6333 39.0336 36.6333 39.9C36.6333 40.7663 36.9775 41.5972 37.5901 42.2098C38.2027 42.8225 39.0336 43.1666 39.9 43.1666Z" fill="#151965"/>
<path d="M33.3663 39.9C33.3663 40.7663 33.0222 41.5972 32.4096 42.2098C31.7969 42.8225 30.966 43.1666 30.0997 43.1666C29.2333 43.1666 28.4024 42.8225 27.7898 42.2098C27.1772 41.5972 26.833 40.7663 26.833 39.9C26.833 39.0336 27.1772 38.2027 27.7898 37.5901C28.4024 36.9775 29.2333 36.6333 30.0997 36.6333C30.966 36.6333 31.7969 36.9775 32.4096 37.5901C33.0222 38.2027 33.3663 39.0336 33.3663 39.9Z" fill="#151965"/>
<path fill-rule="evenodd" clip-rule="evenodd" d="M54.5999 35.0004C54.5999 45.8245 45.824 54.6004 34.9999 54.6004C24.1758 54.6004 15.3999 45.8245 15.3999 35.0004C15.3999 24.1763 24.1758 15.4004 34.9999 15.4004C45.824 15.4004 54.5999 24.1763 54.5999 35.0004ZM49.6999 35.0004C49.6999 36.9308 49.3197 38.8423 48.5809 40.6258C47.8422 42.4093 46.7594 44.0298 45.3944 45.3949C44.0293 46.7599 42.4088 47.8427 40.6253 48.5814C38.8419 49.3202 36.9303 49.7004 34.9999 49.7004C33.0695 49.7004 31.1579 49.3202 29.3745 48.5814C27.591 47.8427 25.9705 46.7599 24.6054 45.3949C23.2404 44.0298 22.1576 42.4093 21.4189 40.6258C20.6801 38.8423 20.2999 36.9308 20.2999 35.0004C20.2999 31.1017 21.8486 27.3627 24.6054 24.6059C27.3622 21.8491 31.1012 20.3004 34.9999 20.3004C38.8986 20.3004 42.6376 21.8491 45.3944 24.6059C48.1511 27.3627 49.6999 31.1017 49.6999 35.0004Z" fill="#151965"/>
</svg>
